<svg id="Icons" xmlns="http://www.w3.org/2000/svg" viewBox="0 0 215 215"><defs><style>.cls-1{fill:#25f4ee}.cls-2{fill:#fe2c55}</style></defs><g id="TikTok"><path id="Background" d="M277 380.2c0-48.65 0-73 15.11-88.09S331.55 277 380.2 277h8.6c48.65 0 73 0 88.09 15.11S492 331.55 492 380.2v8.6c0 48.65 0 73-15.11 88.09S437.45 492 388.8 492h-8.6c-48.65 0-73 0-88.09-15.11S277 437.45 277 388.8Z" transform="translate(-277 -277)"/><g id="TikTok-2" data-name="TikTok"><g id="TikTok-3" data-name="TikTok"><path class="cls-1" d="M370.16 373v-5a36.4 36.4 0 0 0-5.22-.44 38.73 38.73 0 0 0-22.21 70.52A38.69 38.69 0 0 1 370.16 373Z" transform="translate(-277 -277)"/><path class="cls-1" d="M371.1 429.38a17.72 17.72 0 0 0 17.68-16.94V328h15.42a28.94 28.94 0 0 1-.44-5.34h-21.1V407A17.72 17.72 0 0 1 365 424.08a18.12 18.12 0 0 1-8.16-2 17.7 17.7 0 0 0 14.28 7.34Zm61.9-72.73V352a28.86 28.86 0 0 1-16-4.82 29.27 29.27 0 0 0 16 9.47Z" transform="translate(-277 -277)"/></g><path id="TikTok-4" data-name="TikTok" class="cls-2" d="M417.06 347.15a29 29 0 0 1-7.22-19.15h-5.64a29.23 29.23 0 0 0 12.86 19.19Zm-52.12 41.5a17.72 17.72 0 0 0-8.16 33.35 17.67 17.67 0 0 1 14.32-28 18.49 18.49 0 0 1 5.23.82v-21.47a36.62 36.62 0 0 0-5.23-.41h-.94v16.33a17.69 17.69 0 0 0-5.22-.62Z" transform="translate(-277 -277)"/><path id="TikTok-5" data-name="TikTok" class="cls-2" d="M433 356.65V373a50.07 50.07 0 0 1-29.26-9.51v42.89a38.81 38.81 0 0 1-38.81 38.73 38.35 38.35 0 0 1-22.2-7 38.73 38.73 0 0 0 67.1-26.36v-42.82a50.15 50.15 0 0 0 29.3 9.39v-21a30.11 30.11 0 0 1-6.13-.66Z" transform="translate(-277 -277)"/><path id="TikTok-6" data-name="TikTok" d="M403.75 406.36v-42.89a50.07 50.07 0 0 0 29.3 9.39v-16.33a29.34 29.34 0 0 1-16-9.38A29.25 29.25 0 0 1 404.2 328h-15.43v84.48a17.71 17.71 0 0 1-32 9.68 17.67 17.67 0 0 1 13.39-32.57V373a38.87 38.87 0 0 0-27.43 65.55 38.36 38.36 0 0 0 22.24 6.57 38.82 38.82 0 0 0 38.78-38.76Z" transform="translate(-277 -277)" style="fill:#fff"/></g></g></svg>