<svg xmlns="http://www.w3.org/2000/svg" viewBox="0 0 215 215"><path d="M1385 380.2c0-48.65 0-73 15.11-88.09S1439.55 277 1488.2 277h8.6c48.65 0 73 0 88.09 15.11S1600 331.55 1600 380.2v8.6c0 48.65 0 73-15.11 88.09S1545.45 492 1496.8 492h-8.6c-48.65 0-73 0-88.09-15.11S1385 437.45 1385 388.8Z" transform="translate(-1385 -277)" style="fill:red"/><path data-name="YouTube" d="M1550.87 354.5a15.34 15.34 0 0 0-10.87-10.84c-9.56-2.56-47.89-2.56-47.89-2.56s-38.33 0-47.89 2.56a15.36 15.36 0 0 0-10.84 10.84c-2.56 9.56-2.56 29.5-2.56 29.5s0 19.94 2.56 29.5a15.36 15.36 0 0 0 10.84 10.84c9.56 2.56 47.89 2.56 47.89 2.56s38.33 0 47.89-2.56a15.34 15.34 0 0 0 10.83-10.84c2.56-9.56 2.56-29.5 2.56-29.5s.04-19.94-2.52-29.5Zm-71 47.89v-36.78l31.86 18.39Z" transform="translate(-1385 -277)" style="fill:#fff"/></svg>