<?xml version="1.0" encoding="UTF-8"?>
<!DOCTYPE svg PUBLIC "-//W3C//DTD SVG 1.0//EN" "http://www.w3.org/TR/2001/REC-SVG-20010904/DTD/svg10.dtd">
<!-- Creator: CorelDRAW X8 -->
<svg xmlns="http://www.w3.org/2000/svg" xml:space="preserve" width="83px" height="83px" version="1.0" style="shape-rendering:geometricPrecision; text-rendering:geometricPrecision; image-rendering:optimizeQuality; fill-rule:evenodd; clip-rule:evenodd"
viewBox="0 0 83000 83000"
 xmlns:xlink="http://www.w3.org/1999/xlink">
 <defs>
  <style type="text/css">
   <![CDATA[
    .str0 {stroke:#F17400;stroke-width:2126;stroke-linecap:round;stroke-linejoin:round}
    .fil2 {fill:none}
    .fil1 {fill:#FFE3C9}
    .fil0 {fill:white}
   ]]>
  </style>
    <clipPath id="id0">
     <path d="M59208 72646c0,4890 -7928,8854 -17708,8854 -9780,0 -17708,-3964 -17708,-8854l0 -23104 35416 0 0 23104z"/>
    </clipPath>
    <clipPath id="id1">
     <path d="M41500 1500l29551 28019c5920,5613 -13230,14775 -29551,14775 -16320,0 -35472,-9160 -29550,-14775l29550 -28019z"/>
    </clipPath>
 </defs>
 <g id="Слой_x0020_1">
  <metadata id="CorelCorpID_0Corel-Layer"/>
  <g id="_548689400">
   <path class="fil0" d="M59208 72646c0,4890 -7928,8854 -17708,8854 -9780,0 -17708,-3964 -17708,-8854l0 -23104 35416 0 0 23104z"/>
   <g style="clip-path:url(#id0)">
    <g>
     <rect class="fil1" x="41500" y="48036" width="28511" height="36312"/>
    </g>
   </g>
   <path class="fil2 str0" d="M59208 72646c0,4890 -7928,8854 -17708,8854 -9780,0 -17708,-3964 -17708,-8854l0 -23104 35416 0 0 23104z"/>
   <line class="fil2 str0" x1="11950" y1="29519" x2="23792" y2= "49542" />
   <line class="fil2 str0" x1="71051" y1="29519" x2="59208" y2= "49542" />
   <path class="fil1 str0" d="M41500 40688c9780,0 17708,3964 17708,8854 0,4890 -7928,8854 -17708,8854 -9780,0 -17708,-3964 -17708,-8854 0,-4890 7928,-8854 17708,-8854z"/>
   <polygon class="fil2 str0" points="37360,41459 45640,41459 41500,58396 "/>
   <path class="fil0" d="M41500 1500l29551 28019c5920,5613 -13230,14775 -29551,14775 -16320,0 -35472,-9160 -29550,-14775l29550 -28019z"/>
   <g style="clip-path:url(#id1)">
    <g>
     <rect class="fil1" x="41501" y="-8275" width="53192" height="62345"/>
    </g>
   </g>
   <path class="fil2 str0" d="M41500 1500l29551 28019c5920,5613 -13230,14775 -29551,14775 -16320,0 -35472,-9160 -29550,-14775l29550 -28019z"/>
  </g>
 </g>
</svg>
