<?xml version="1.0" encoding="UTF-8"?>
<!DOCTYPE svg PUBLIC "-//W3C//DTD SVG 1.0//EN" "http://www.w3.org/TR/2001/REC-SVG-20010904/DTD/svg10.dtd">
<!-- Creator: CorelDRAW X8 -->
<svg xmlns="http://www.w3.org/2000/svg" xml:space="preserve" width="83px" height="83px" version="1.0" style="shape-rendering:geometricPrecision; text-rendering:geometricPrecision; image-rendering:optimizeQuality; fill-rule:evenodd; clip-rule:evenodd"
viewBox="0 0 83000 83000"
 xmlns:xlink="http://www.w3.org/1999/xlink">
 <defs>
  <style type="text/css">
   <![CDATA[
    .str0 {stroke:#F17400;stroke-width:2126;stroke-linecap:round;stroke-linejoin:round}
    .fil2 {fill:none}
    .fil1 {fill:#FFE3C9}
    .fil0 {fill:white}
   ]]>
  </style>
    <clipPath id="id0">
     <path d="M21231 63928l40538 0 0 -36505c-5201,-5162 -12363,-8351 -20269,-8351 -7906,0 -15068,3189 -20269,8351l0 36505z"/>
    </clipPath>
 </defs>
 <g id="Слой_x0020_1">
  <metadata id="CorelCorpID_0Corel-Layer"/>
  <g id="_546830832">
   <polygon class="fil0 str0" points="6500,6500 76500,6500 76500,76500 6500,76500 "/>
   <polygon class="fil0 str0" points="11969,11969 71031,11969 71031,20554 76500,20554 76500,24930 71031,24930 71031,58070 76500,58070 76500,62446 71031,62446 71031,71031 11969,71031 "/>
   <path class="fil1" d="M21231 63928l40538 0 0 -36505c-5201,-5162 -12363,-8351 -20269,-8351 -7906,0 -15068,3189 -20269,8351l0 36505z"/>
   <g style="clip-path:url(#id0)">
    <g>
     <rect class="fil0" transform="matrix(1.09966 -1.09966 0.947641 0.947641 -10501.8 81183.3)" width="83376" height="13000"/>
    </g>
   </g>
   <path class="fil2 str0" d="M21231 63928l40538 0 0 -36505c-5201,-5162 -12363,-8351 -20269,-8351 -7906,0 -15068,3189 -20269,8351l0 36505z"/>
   <polygon class="fil0 str0" points="71031,20554 76500,20554 76500,16179 71031,16179 "/>
   <polygon class="fil0 str0" points="71031,66821 76500,66821 76500,62446 71031,62446 "/>
   <polygon class="fil0 str0" points="6500,38766 11969,38766 11969,44234 6500,44234 "/>
   <path class="fil0 str0" d="M6500 58070l219 0c2887,0 5250,-2362 5250,-5250l0 -8586 -5469 0 0 13836z"/>
  </g>
 </g>
</svg>
