<?xml version="1.0" encoding="UTF-8"?>
<!DOCTYPE svg PUBLIC "-//W3C//DTD SVG 1.0//EN" "http://www.w3.org/TR/2001/REC-SVG-20010904/DTD/svg10.dtd">
<!-- Creator: CorelDRAW X8 -->
<svg xmlns="http://www.w3.org/2000/svg" xml:space="preserve" width="83px" height="83px" version="1.0" style="shape-rendering:geometricPrecision; text-rendering:geometricPrecision; image-rendering:optimizeQuality; fill-rule:evenodd; clip-rule:evenodd"
viewBox="0 0 83000 83000"
 xmlns:xlink="http://www.w3.org/1999/xlink">
 <defs>
  <style type="text/css">
   <![CDATA[
    .str0 {stroke:#F17400;stroke-width:2126;stroke-linecap:round;stroke-linejoin:round}
    .fil1 {fill:none}
    .fil2 {fill:#FFE3C9}
    .fil0 {fill:white}
   ]]>
  </style>
 </defs>
 <g id="Слой_x0020_1">
  <metadata id="CorelCorpID_0Corel-Layer"/>
  <g id="_704553768">
   <path class="fil0 str0" d="M38200 33026l24958 14409c1141,659 1535,1566 1113,2568 -423,1002 -1542,1819 -3169,2312l-52523 15915c-2082,631 -4335,495 -5795,-348 -1460,-843 -1694,-2144 -602,-3345l27566 -30325c854,-939 2268,-1585 4003,-1829 1736,-244 3307,-17 4449,643z"/>
   <line class="fil1 str0" x1="43418" y1="44423" x2="50679" y2= "40230" />
   <g>
    <polygon class="fil0 str0" points="51532,19068 75467,5249 75706,5157 75965,5099 76242,5074 76534,5081 76839,5121 77154,5191 77478,5292 77808,5423 78141,5583 78475,5772 78808,5988 79137,6233 79460,6503 79774,6800 80071,7114 80342,7437 80586,7766 80803,8099 80991,8433 81151,8766 81282,9096 81383,9420 81453,9735 81493,10040 81500,10332 81475,10609 81417,10868 81325,11108 81199,11324 81038,11516 80846,11677 80629,11803 56695,25622 56911,25496 57103,25335 57264,25143 57390,24926 57482,24687 57540,24428 57565,24151 57558,23859 57519,23554 57448,23239 57347,22915 57216,22585 57056,22252 56868,21918 56651,21585 56407,21256 56136,20933 55839,20619 55525,20322 55202,20051 54873,19807 54540,19590 54206,19402 53873,19242 53543,19111 53220,19010 52904,18940 52599,18900 52307,18893 52030,18918 51771,18976 "/>
   </g>
   <path class="fil0 str0" d="M52387 24071c-1651,-1651 -2217,-3763 -1264,-4716 954,-954 3065,-388 4716,1264 1652,1651 2218,3762 1264,4716 -953,953 -3065,387 -4716,-1264z"/>
   <path class="fil2 str0" d="M34238 65083c2762,0 5000,1293 5000,2887 0,1594 -2238,2887 -5000,2887 -2761,0 -5000,-1293 -5000,-2887 0,-1594 2239,-2887 5000,-2887z"/>
   <path class="fil1 str0" d="M50679 40230l0 -11937c0,-2522 1250,-4687 3434,-5948"/>
   <path class="fil2 str0" d="M13235 50657c2793,3280 8638,5538 15396,5538 6758,0 12603,-2257 15396,-5537 1588,-1866 1173,-4301 -88,-6403l-11694 -19501c-734,-1225 -2185,-1610 -3614,-1610 -1429,0 -2880,385 -3615,1610l-11693 19501c-1260,2102 -1676,4536 -88,6402z"/>
   <path class="fil2 str0" d="M46528 75416c1266,1487 3915,2510 6978,2510 3064,0 5713,-1023 6979,-2510 720,-846 684,-2059 -40,-2902l-5300 -6176c-422,-491 -991,-730 -1639,-730 -648,0 -1216,239 -1638,730l-5300 6176c-723,843 -760,2056 -40,2902z"/>
  </g>
 </g>
</svg>
