<?xml version="1.0" encoding="UTF-8"?>
<!DOCTYPE svg PUBLIC "-//W3C//DTD SVG 1.0//EN" "http://www.w3.org/TR/2001/REC-SVG-20010904/DTD/svg10.dtd">
<!-- Creator: CorelDRAW X8 -->
<svg xmlns="http://www.w3.org/2000/svg" xml:space="preserve" width="83px" height="83px" version="1.0" style="shape-rendering:geometricPrecision; text-rendering:geometricPrecision; image-rendering:optimizeQuality; fill-rule:evenodd; clip-rule:evenodd"
viewBox="0 0 83000 83000"
 xmlns:xlink="http://www.w3.org/1999/xlink">
 <defs>
  <style type="text/css">
   <![CDATA[
    .str0 {stroke:#F17400;stroke-width:2126;stroke-linecap:round;stroke-linejoin:round}
    .fil2 {fill:none}
    .fil1 {fill:#FFE3C9}
    .fil0 {fill:white}
   ]]>
  </style>
 </defs>
 <g id="Слой_x0020_1">
  <metadata id="CorelCorpID_0Corel-Layer"/>
  <g id="_541910664">
   <polygon class="fil0 str0" points="47885,1500 28968,12421 10051,23343 10051,45186 10051,67030 28968,56108 47885,45186 47885,23343 "/>
   <polygon class="fil0 str0" points="60417,8735 41500,19657 22583,30578 22583,52421 22583,74265 41500,63343 60417,52422 60417,30579 "/>
   <polygon class="fil1 str0" points="72949,15971 54032,26892 35115,37814 35115,59657 35115,81500 54032,70579 72949,59657 72949,37814 "/>
   <line class="fil2 str0" x1="35115" y1="52375" x2="72949" y2= "30533" />
   <line class="fil2 str0" x1="35115" y1="66938" x2="72949" y2= "45095" />
   <line class="fil2 str0" x1="54032" y1="41454" x2="54032" y2= "26892" />
   <line class="fil2 str0" x1="54032" y1="70579" x2="54032" y2= "56017" />
   <line class="fil2 str0" x1="44574" y1="61478" x2="44574" y2= "46915" />
   <line class="fil2 str0" x1="63491" y1="50557" x2="63491" y2= "35995" />
  </g>
 </g>
</svg>
