<svg xmlns="http://www.w3.org/2000/svg" xml:space="preserve" width="83" height="83" version="1.0" style="shape-rendering:geometricPrecision;text-rendering:geometricPrecision;image-rendering:optimizeQuality;fill-rule:evenodd;clip-rule:evenodd" viewBox="0 0 83000 83000"><defs><clipPath id="id0"><path d="M72070 14163c-11466 0-22462-4555-30570-12663-8108 8108-19104 12663-30570 12663 0 34459 13278 54712 30570 67337 17292-12625 30570-32878 30570-67337z"/></clipPath><style>.str0{stroke:#f17400;stroke-width:2126;stroke-linecap:round;stroke-linejoin:round}.fil1{fill:#ffe3c9}.fil0{fill:#fff}</style></defs><g id="Слой_x0020_1"><g id="_546810072"><path class="fil0" d="M72070 14163c-11466 0-22462-4555-30570-12663-8108 8108-19104 12663-30570 12663 0 34459 13278 54712 30570 67337 17292-12625 30570-32878 30570-67337z"/><path class="fil1" d="M41500-717h41588v84434H41500z" style="clip-path:url(#id0)"/><path class="str0" d="M72070 14163c-11466 0-22462-4555-30570-12663-8108 8108-19104 12663-30570 12663 0 34459 13278 54712 30570 67337 17292-12625 30570-32878 30570-67337z" style="fill:none"/><path class="fil0" d="M48285 37193s-912 4092-8189 5907c-3014 752-4849 3804-4097 6818 751 3015 3804 4849 6819 4098 9096-2268 5467-16823 5467-16823z"/><path class="fil1 str0" d="M45250 19184c-8524 4912-7500 18750-7500 18750s-3750-1250-3750-6875c-4474 2594-7500 7581-7500 13125 0 8285 6716 15000 15000 15000s15000-6715 15000-15000c0-12187-11250-14687-11250-25000h0zm-2432 34832c-3015 751-6067-1083-6819-4097-752-3015 1083-6068 4097-6819 7277-1815 8189-5907 8189-5907s3629 14555-5467 16823h0z"/></g></g></svg>