<svg data-name="Слой 1" xmlns="http://www.w3.org/2000/svg" width="83" height="83"><path d="M82.27 1.46V13.3c-.73 1.12-1.95.41-2.97.75v66.03c0 .29-.02.58 0 .87.03.57-.18 1.02-.68 1.32H4.72c-.78-.42-.68-1.17-.68-1.87V13.95H2.59c-1.21 0-1.51-.29-1.51-1.47V2.38c0-1.25.29-1.55 1.52-1.55 26.05 0 52.1 0 78.15-.01.63 0 1.13.15 1.52.64ZM47.1 80.03h18.99V24.09H17.26v55.92h19.23c-3.2-1.43-5.58-3.49-7.13-6.39-1.47-2.75-2.23-5.7-1.28-8.74.76-2.44 1.75-4.85 2.97-7.1 2.67-4.94 6.03-9.44 9.56-13.81.7-.86 1.35-.86 2.06.04 1.3 1.66 2.62 3.3 3.86 5.01 2.96 4.07 5.76 8.23 7.7 12.91.76 1.83 1.38 3.69 1.3 5.71-.16 3.91-1.72 7.18-4.66 9.74-1.17 1.02-2.55 1.8-3.75 2.64ZM80.18 2.91H3.16v8.81h77.02V2.91ZM48.46 76.76c.23-.17.48-.32.69-.5.36-.31.73-.62 1.04-.97 2.94-3.3 4.22-7.04 2.63-11.34-.78-2.11-1.8-4.14-2.9-6.11-2.31-4.12-5.16-7.88-8.06-11.6-.07-.09-.17-.16-.27-.25-3.91 4.97-7.58 10.03-10.3 15.72-1.44 3.01-2.1 6.04-.89 9.28.79 2.13 2.02 3.93 3.99 5.46-.74-1.92-.87-3.64-.18-5.4 1.48-3.75 3.87-6.92 6.35-10.03.53-.66 1.24-.6 1.81.1 2.16 2.66 4.15 5.44 5.69 8.52 1.15 2.3 1.53 4.63.39 7.12ZM23.54 13.99v7.98h16.62v-7.98H23.54Zm35.36.02H42.27v7.94H58.9v-7.94Zm2.13-.02v7.98h16.21v-7.98H61.03ZM6.1 21.95h15.3v-7.96H6.1v7.96Zm35.33 41.23c-1.99 2.67-4 5.24-5.21 8.29-1.04 2.62-.07 5.24 2.37 6.71 2 1.19 4.59.98 6.43-.53 1.88-1.54 2.55-3.84 1.67-6.08-1.22-3.09-3.25-5.68-5.26-8.39Zm-26.32-2.29v-7.71H6.13v7.71h8.98Zm53.13-7.71v7.7h9v-7.7h-9ZM15.12 41.47v-7.73H6.06v7.29c0 .56.42.43.74.43h8.32Zm62.09-.05v-7.68h-8.98v7.68h8.98ZM6.09 51.07h9.01v-7.53H6.09v7.53Zm62.12-.02h9.01v-7.52h-9.01v7.52ZM15.12 24.1h-9v7.51h9V24.1Zm62.13-.02h-9.03v7.51h9.03v-7.51ZM6.12 62.98v7.53h9v-7.53h-9Zm71.12 7.55V63h-9.01v7.53h9.01Zm-71.15 9.5h9.03v-7.38H6.09v7.38Zm71.15-7.38h-9.02v7.39h9.02v-7.39Z" fill="#f17400" stroke="#fff" stroke-miterlimit="10"/></svg>