<svg xmlns="http://www.w3.org/2000/svg" xml:space="preserve" width="83" height="83" version="1.0" style="shape-rendering:geometricPrecision;text-rendering:geometricPrecision;image-rendering:optimizeQuality;fill-rule:evenodd;clip-rule:evenodd" viewBox="0 0 83000 83000"><defs><clipPath id="id0"><path d="M21231 63928h40538V27423c-5201-5162-12363-8351-20269-8351s-15068 3189-20269 8351v36505z"/></clipPath><style>.str0{stroke:#f17400;stroke-width:2126;stroke-linecap:round;stroke-linejoin:round}.fil0{fill:#fff}</style></defs><g id="Слой_x0020_1"><g id="_546830832"><path class="fil0 str0" d="M6500 6500h70000v70000H6500z"/><path class="fil0 str0" d="M11969 11969h59062v8585h5469v4376h-5469v33140h5469v4376h-5469v8585H11969z"/><path d="M21231 63928h40538V27423c-5201-5162-12363-8351-20269-8351s-15068 3189-20269 8351v36505z" style="fill:#ffe3c9"/><path class="fil0" transform="rotate(-45 92746.06 53268.08) scale(1.55515 1.34017)" d="M0 0h83376v13000H0z" style="clip-path:url(#id0)"/><path class="str0" d="M21231 63928h40538V27423c-5201-5162-12363-8351-20269-8351s-15068 3189-20269 8351v36505z" style="fill:none"/><path class="fil0 str0" d="M71031 20554h5469v-4375h-5469zm0 46267h5469v-4375h-5469zM6500 38766h5469v5468H6500zm0 19304h219c2887 0 5250-2362 5250-5250v-8586H6500v13836z"/></g></g></svg>