<svg xmlns="http://www.w3.org/2000/svg" xml:space="preserve" width="83" height="83" version="1.0" style="shape-rendering:geometricPrecision;text-rendering:geometricPrecision;image-rendering:optimizeQuality;fill-rule:evenodd;clip-rule:evenodd" viewBox="0 0 83000 83000"><defs><style>.str0{stroke:#f17400;stroke-width:2126;stroke-linecap:round;stroke-linejoin:round}.fil1{fill:none}.fil2{fill:#ffe3c9}.fil0{fill:#fff}</style></defs><g id="Слой_x0020_1"><g id="_704553768"><path class="fil0 str0" d="m38200 33026 24958 14409c1141 659 1535 1566 1113 2568-423 1002-1542 1819-3169 2312L8579 68230c-2082 631-4335 495-5795-348s-1694-2144-602-3345l27566-30325c854-939 2268-1585 4003-1829 1736-244 3307-17 4449 643z"/><path class="fil1 str0" d="m43418 44423 7261-4193"/><path class="fil0 str0" d="M51532 19068 75467 5249l239-92 259-58 277-25 292 7 305 40 315 70 324 101 330 131 333 160 334 189 333 216 329 245 323 270 314 297 297 314 271 323 244 329 217 333 188 334 160 333 131 330 101 324 70 315 40 305 7 292-25 277-58 259-92 240-126 216-161 192-192 161-217 126-23934 13819 216-126 192-161 161-192 126-217 92-239 58-259 25-277-7-292-39-305-71-315-101-324-131-330-160-333-188-334-217-333-244-329-271-323-297-314-314-297-323-271-329-244-333-217-334-188-333-160-330-131-323-101-316-70-305-40-292-7-277 25-259 58z"/><path class="fil0 str0" d="M52387 24071c-1651-1651-2217-3763-1264-4716 954-954 3065-388 4716 1264 1652 1651 2218 3762 1264 4716-953 953-3065 387-4716-1264z"/><path class="fil2 str0" d="M34238 65083c2762 0 5000 1293 5000 2887s-2238 2887-5000 2887c-2761 0-5000-1293-5000-2887s2239-2887 5000-2887z"/><path class="fil1 str0" d="M50679 40230V28293c0-2522 1250-4687 3434-5948"/><path class="fil2 str0" d="M13235 50657c2793 3280 8638 5538 15396 5538s12603-2257 15396-5537c1588-1866 1173-4301-88-6403L32245 24754c-734-1225-2185-1610-3614-1610s-2880 385-3615 1610L13323 44255c-1260 2102-1676 4536-88 6402zm33293 24759c1266 1487 3915 2510 6978 2510 3064 0 5713-1023 6979-2510 720-846 684-2059-40-2902l-5300-6176c-422-491-991-730-1639-730s-1216 239-1638 730l-5300 6176c-723 843-760 2056-40 2902z"/></g></g></svg>