<svg xmlns="http://www.w3.org/2000/svg" viewBox="0 0 48.69 48.75"><path d="M47.66 42.4 33.74 28.54 30 24.85q8.8-8.7 17.6-17.38c1.59-1.56 2-3 .29-4.79C45.4.05 44.29 0 41.62 2.61l-17 16.83Q16.27 11.12 7.85 2.88a4.68 4.68 0 0 0-3.47-1.43C.83 2.31 0 5.78 2.6 8.36q8.27 8.25 16.56 16.47L6.09 37.76C4.58 39.25 3 40.67 1.61 42.29a3.76 3.76 0 0 0-.91 2.89c1 3.49 4.45 4.28 7 1.72q8.46-8.31 16.87-16.66c5.87 5.84 11.72 11.68 17.61 17.51 2.23 2.21 3.2 2.21 5.37.13 2.29-2.23 2.34-3.21.08-5.48Z" transform="translate(-.64 -.67)" style="fill:#fff"/></svg>