<svg xmlns="http://www.w3.org/2000/svg" viewBox="0 0 215 215"><path d="M0 103.2c0-48.65 0-73 15.11-88.09S54.55 0 103.2 0h8.6c48.65 0 73 0 88.09 15.11S215 54.55 215 103.2v8.6c0 48.65 0 73-15.11 88.09S160.45 215 111.8 215h-8.6c-48.65 0-73 0-88.09-15.11S0 160.45 0 111.8Z"/><path data-name="Дзен" d="M382.18 865.17c-.37 29.69-2.39 46.38-13.52 57.52s-27.8 13.16-57.47 13.53v4.39c29.67.37 46.34 2.4 57.47 13.53s13.15 27.83 13.52 57.52h4.39c.37-29.69 2.39-46.38 13.52-57.52s27.8-13.16 57.46-13.53v-4.39c-29.66-.37-46.34-2.4-57.46-13.53s-13.15-27.83-13.52-57.52Z" transform="translate(-277 -831)" style="fill:#fff;fill-rule:evenodd"/></svg>