<svg xmlns="http://www.w3.org/2000/svg" xml:space="preserve" width="83" height="83" version="1.0" style="shape-rendering:geometricPrecision;text-rendering:geometricPrecision;image-rendering:optimizeQuality;fill-rule:evenodd;clip-rule:evenodd" viewBox="0 0 83000 83000"><defs><style>.str0{stroke:#f17400;stroke-width:2126;stroke-linecap:round;stroke-linejoin:round}.fil2{fill:none}.fil1{fill:#ffe3c9}.fil0{fill:#fff}</style></defs><g id="Слой_x0020_1"><g id="_546809880"><path class="fil0 str0" d="M49220 34996 17407 53364l16372 9452 31814-18367z"/><path class="fil1 str0" d="M65593 59261 33779 77629V62816l31814-18367z"/><path class="fil0 str0" d="m17407 68176 16372 9453V62816l-16372-9452z"/><path class="fil2 str0" d="m29373 52389 6827 3942m-896-7507c2276 1314 4551 2628 6827 3942m-896-7507c2276 1314 4551 2627 6827 3941m-896-7507 6827 3942"/><path class="fil0 str0" d="M65127 11000 33313 29368l16373 9452 31814-18367z"/><path class="fil1 str0" d="M81500 35265 49686 53633V38820l31814-18367z"/><path class="fil0 str0" d="m33314 44180 16372 9453V38820l-16373-9452z"/><path class="fil2 str0" d="m45280 28393 6827 3942"/><path class="fil0 str0" d="M33313 29367 1500 47735l16372 9453 31814-18368z"/><path class="fil1 str0" d="M49686 53633 17872 72000V57188l31814-18368z"/><path class="fil0 str0" d="m1500 62548 16372 9452V57188L1500 47735z"/><path class="fil2 str0" d="m31259 36065 6827 3941"/><path class="fil0 str0" d="M49220 5371 17406 23739l16373 9453 31814-18368z"/><path class="fil1 str0" d="M65593 29637 33779 48004V33192l31814-18368z"/><path class="fil0 str0" d="m17407 38552 16372 9452V33192l-16373-9453z"/></g></g></svg>