<svg xmlns="http://www.w3.org/2000/svg" xml:space="preserve" width="83" height="83" version="1.0" style="shape-rendering:geometricPrecision;text-rendering:geometricPrecision;image-rendering:optimizeQuality;fill-rule:evenodd;clip-rule:evenodd" viewBox="0 0 83000 83000"><defs><clipPath id="id0"><path d="M59208 72646c0 4890-7928 8854-17708 8854s-17708-3964-17708-8854V49542h35416v23104z"/></clipPath><clipPath id="id1"><path d="m41500 1500 29551 28019c5920 5613-13230 14775-29551 14775-16320 0-35472-9160-29550-14775L41500 1500z"/></clipPath><style>.str0{stroke:#f17400;stroke-width:2126;stroke-linecap:round;stroke-linejoin:round}.fil2{fill:none}.fil1{fill:#ffe3c9}.fil0{fill:#fff}</style></defs><g id="Слой_x0020_1"><g id="_548689400"><path class="fil0" d="M59208 72646c0 4890-7928 8854-17708 8854s-17708-3964-17708-8854V49542h35416v23104z"/><path class="fil1" d="M41500 48036h28511v36312H41500z" style="clip-path:url(#id0)"/><path class="fil2 str0" d="M59208 72646c0 4890-7928 8854-17708 8854s-17708-3964-17708-8854V49542h35416v23104zM11950 29519l11842 20023m47259-20023L59208 49542"/><path class="fil1 str0" d="M41500 40688c9780 0 17708 3964 17708 8854s-7928 8854-17708 8854-17708-3964-17708-8854 7928-8854 17708-8854z"/><path class="fil2 str0" d="M37360 41459h8280l-4140 16937z"/><path class="fil0" d="m41500 1500 29551 28019c5920 5613-13230 14775-29551 14775-16320 0-35472-9160-29550-14775L41500 1500z"/><path class="fil1" d="M41501-8275h53192v62345H41501z" style="clip-path:url(#id1)"/><path class="fil2 str0" d="m41500 1500 29551 28019c5920 5613-13230 14775-29551 14775-16320 0-35472-9160-29550-14775L41500 1500z"/></g></g></svg>