<svg id="Icons" xmlns="http://www.w3.org/2000/svg" viewBox="0 0 215 215"><defs><style>.cls-1{fill:#ee8208;}.cls-2{fill:#fff;}</style></defs><g id="Ok"><path id="Background" class="cls-1" d="M831,657.2c0-48.65,0-73,15.11-88.09S885.55,554,934.2,554h8.6c48.65,0,73,0,88.09,15.11S1046,608.55,1046,657.2v8.6c0,48.65,0,73-15.11,88.09S991.45,769,942.8,769h-8.6c-48.65,0-73,0-88.09-15.11S831,714.45,831,665.8Z" transform="translate(-831 -554)"/><g id="Ok-2" data-name="Ok"><path id="Ok-3" data-name="Ok" class="cls-2" d="M938.45,665.08a32.79,32.79,0,1,0-32.79-32.79,32.84,32.84,0,0,0,32.79,32.79m0-46.4a13.61,13.61,0,1,1-13.6,13.61,13.61,13.61,0,0,1,13.6-13.61" transform="translate(-831 -554)"/><path id="Ok-4" data-name="Ok" class="cls-2" d="M951.75,691.78a61.26,61.26,0,0,0,19.09-7.92,9.65,9.65,0,1,0-10.26-16.34,41.76,41.76,0,0,1-44.16,0,9.65,9.65,0,0,0-10.26,16.34,60.29,60.29,0,0,0,19.09,7.92l-18.37,18.38a9.61,9.61,0,0,0,0,13.6,9.93,9.93,0,0,0,6.8,2.84,9.37,9.37,0,0,0,6.8-2.84l18.07-18.07,18.07,18.07a9.62,9.62,0,0,0,13.61-13.6Z" transform="translate(-831 -554)"/></g></g></svg>