<svg id="Icons" xmlns="http://www.w3.org/2000/svg" viewBox="0 0 215 215"><defs><style>.cls-1{fill:#fff;fill-rule:evenodd;}</style></defs><g id="Дзен"><path id="Background" d="M277,934.2c0-48.65,0-73,15.11-88.09S331.55,831,380.2,831h8.6c48.65,0,73,0,88.09,15.11S492,885.55,492,934.2v8.6c0,48.65,0,73-15.11,88.09S437.45,1046,388.8,1046h-8.6c-48.65,0-73,0-88.09-15.11S277,991.45,277,942.8Z" transform="translate(-277 -831)"/><path id="Дзен-2" data-name="Дзен" class="cls-1" d="M382.18,865.17c-.37,29.69-2.39,46.38-13.52,57.52s-27.8,13.16-57.47,13.53v4.39c29.67.37,46.34,2.4,57.47,13.53s13.15,27.83,13.52,57.52h4.39c.37-29.69,2.39-46.38,13.52-57.52s27.8-13.16,57.46-13.53v-4.39c-29.66-.37-46.34-2.4-57.46-13.53s-13.15-27.83-13.52-57.52Z" transform="translate(-277 -831)"/></g></svg>